<svg width="291" height="292" viewBox="0 0 291 292" fill="none" xmlns="http://www.w3.org/2000/svg">
<path d="M244.404 125.937C244.343 125.827 244.305 125.706 244.291 125.581C244.277 125.457 244.288 125.33 244.323 125.209C244.358 125.089 244.417 124.976 244.495 124.878C244.574 124.78 244.671 124.699 244.781 124.638C246.965 123.457 249.337 122.665 251.793 122.299V118.521C251.793 118.267 251.894 118.024 252.073 117.845C252.253 117.665 252.496 117.564 252.75 117.564H259.628C259.882 117.564 260.125 117.665 260.305 117.845C260.484 118.024 260.585 118.267 260.585 118.521V122.359C266.363 123.136 271.776 125.627 276.125 129.511C276.308 129.669 276.424 129.89 276.451 130.13C276.478 130.369 276.413 130.611 276.27 130.805L271.129 137.758C271.051 137.864 270.952 137.953 270.837 138.019C270.723 138.085 270.597 138.126 270.466 138.141C270.335 138.155 270.202 138.143 270.076 138.103C269.95 138.064 269.834 138 269.734 137.913C267.096 135.547 263.974 133.785 260.585 132.75V144.969C262.802 145.47 264.982 146.122 267.11 146.921C267.319 147.001 267.492 147.152 267.601 147.347C267.709 147.542 267.747 147.769 267.706 147.989C267.665 148.208 267.548 148.406 267.377 148.549C267.205 148.692 266.989 148.77 266.765 148.77C266.647 148.77 266.53 148.748 266.42 148.706C264.138 147.857 261.798 147.174 259.417 146.664C259.205 146.616 259.016 146.498 258.88 146.328C258.745 146.158 258.671 145.948 258.671 145.731V131.522C258.671 131.378 258.703 131.237 258.764 131.108C258.826 130.978 258.916 130.865 259.028 130.775C259.139 130.685 259.27 130.621 259.409 130.589C259.549 130.556 259.694 130.555 259.834 130.586C263.648 131.49 267.196 133.277 270.194 135.803L274.195 130.389C270.04 126.889 264.93 124.719 259.527 124.16C259.292 124.135 259.074 124.024 258.916 123.848C258.758 123.672 258.671 123.444 258.671 123.208V119.478H253.707V123.132C253.707 123.366 253.621 123.591 253.466 123.766C253.311 123.941 253.098 124.054 252.866 124.082C250.357 124.362 247.925 125.12 245.702 126.315C245.479 126.437 245.218 126.466 244.974 126.395C244.731 126.324 244.526 126.16 244.404 125.937ZM268.369 161.752C268.369 165.844 264.982 168.887 259.74 169.505C259.703 169.509 259.665 169.511 259.628 169.511C259.374 169.511 259.131 169.411 258.951 169.231C258.772 169.052 258.671 168.808 258.671 168.554V155.101C258.671 154.952 258.706 154.805 258.772 154.672C258.839 154.539 258.936 154.423 259.055 154.334C259.174 154.245 259.313 154.185 259.459 154.159C259.606 154.133 259.756 154.141 259.899 154.184C265.264 155.771 268.369 157.517 268.369 161.752ZM266.455 161.752C266.455 159.223 264.997 157.842 260.585 156.4V167.435C264.234 166.707 266.455 164.59 266.455 161.752ZM270.59 148.547C270.369 148.424 270.109 148.393 269.866 148.461C269.622 148.529 269.416 148.69 269.291 148.91C269.166 149.129 269.133 149.389 269.199 149.633C269.266 149.877 269.425 150.085 269.644 150.211C270.121 150.485 270.577 150.769 270.998 151.066C271.206 151.212 271.463 151.269 271.713 151.225C271.963 151.182 272.186 151.04 272.332 150.833C272.478 150.625 272.535 150.368 272.491 150.118C272.447 149.867 272.306 149.645 272.098 149.499C271.611 149.158 271.107 148.84 270.59 148.547ZM274.931 152.087C274.853 151.986 274.755 151.902 274.643 151.839C274.531 151.777 274.408 151.738 274.281 151.724C274.154 151.71 274.025 151.721 273.903 151.758C273.78 151.794 273.666 151.855 273.567 151.936C273.469 152.018 273.387 152.118 273.328 152.231C273.269 152.345 273.233 152.469 273.222 152.596C273.212 152.724 273.227 152.852 273.267 152.973C273.307 153.095 273.371 153.207 273.455 153.304C275.102 155.304 275.903 157.771 275.903 160.846C275.903 169.305 269.642 174.992 259.563 175.687C259.321 175.703 259.094 175.811 258.929 175.988C258.763 176.166 258.671 176.399 258.671 176.642V180.524H253.707V176.414C253.707 176.18 253.621 175.954 253.466 175.779C253.31 175.604 253.096 175.492 252.864 175.464C246.783 174.783 241.058 172.256 236.457 168.222L240.697 162.982C244.072 165.971 248.15 168.055 252.55 169.037C252.69 169.067 252.834 169.065 252.973 169.032C253.111 168.999 253.241 168.935 253.352 168.845C253.463 168.756 253.552 168.642 253.614 168.514C253.675 168.385 253.707 168.244 253.707 168.102V162.715C253.707 162.461 253.606 162.218 253.427 162.038C253.247 161.859 253.004 161.758 252.75 161.758C252.496 161.758 252.253 161.859 252.073 162.038C251.894 162.218 251.793 162.461 251.793 162.715V166.887C247.833 165.786 244.205 163.729 241.228 160.895C241.132 160.807 241.018 160.74 240.895 160.697C240.771 160.654 240.641 160.637 240.51 160.647C240.38 160.656 240.253 160.693 240.137 160.753C240.022 160.814 239.92 160.898 239.838 160.999L234.396 167.726C234.243 167.915 234.168 168.155 234.186 168.398C234.204 168.64 234.313 168.867 234.492 169.032C239.276 173.487 245.318 176.358 251.793 177.253V181.479C251.793 181.732 251.894 181.976 252.073 182.155C252.253 182.335 252.496 182.436 252.75 182.436H259.628C259.882 182.436 260.125 182.335 260.305 182.155C260.484 181.976 260.585 181.732 260.585 181.479V177.522C271.24 176.479 277.816 170.15 277.816 160.846C277.816 157.308 276.873 154.444 274.931 152.087ZM251.793 154.102V158.387C251.793 158.641 251.894 158.884 252.073 159.064C252.253 159.243 252.496 159.344 252.75 159.344C253.004 159.344 253.247 159.243 253.427 159.064C253.606 158.884 253.707 158.641 253.707 158.387V153.363C253.707 153.151 253.637 152.945 253.507 152.778C253.377 152.61 253.196 152.491 252.991 152.437C243.821 150.051 238.138 146.921 238.138 138.701C238.118 136.829 238.489 134.973 239.225 133.252C239.962 131.531 241.048 129.982 242.416 128.704C242.597 128.528 242.701 128.288 242.706 128.036C242.711 127.784 242.617 127.54 242.443 127.357C242.269 127.174 242.03 127.068 241.778 127.06C241.526 127.053 241.281 127.145 241.097 127.317C239.549 128.781 238.318 130.546 237.48 132.504C236.642 134.462 236.214 136.571 236.224 138.701C236.224 147.891 242.417 151.564 251.793 154.102ZM253.341 130.619C253.455 130.708 253.547 130.823 253.61 130.953C253.674 131.084 253.707 131.227 253.707 131.372V143.916C253.707 144.17 253.606 144.413 253.426 144.593C253.247 144.772 253.004 144.873 252.75 144.873C252.642 144.873 252.534 144.855 252.432 144.818C248.96 143.597 245.747 141.91 245.747 137.87C245.747 134.418 248.47 131.432 252.522 130.44C252.663 130.406 252.81 130.404 252.952 130.435C253.093 130.466 253.226 130.528 253.341 130.617V130.619ZM251.793 132.677C249.277 133.668 247.661 135.651 247.661 137.872C247.661 139.99 248.769 141.288 251.793 142.532V132.677Z" fill="white"/>
<g clip-path="url(#clip0_7_84)">
<path d="M99.8577 166C95.7069 166 91.9729 163.068 90.4712 158.668H87.5473C86.6112 158.668 85.8493 157.906 85.8493 156.97C85.8493 156.033 86.6112 155.272 87.5473 155.272H89.8093C89.7746 154.706 89.7781 154.139 89.8198 153.574H87.5473C86.6112 153.574 85.8493 152.812 85.8493 151.876C85.8493 150.939 86.6112 150.178 87.5473 150.178H90.5249C92.0602 145.87 95.773 143 99.8577 143C102.397 143 104.821 144.079 106.684 146.039C106.994 146.366 107.161 146.802 107.15 147.252C107.138 147.702 106.949 148.129 106.623 148.44C106.308 148.74 105.889 148.908 105.453 148.907C104.99 148.907 104.542 148.714 104.223 148.379C103.007 147.1 101.458 146.396 99.8577 146.396C97.5484 146.396 95.4377 147.828 94.2157 150.178H101.286C102.222 150.178 102.984 150.94 102.984 151.876C102.984 152.813 102.222 153.574 101.286 153.574H93.2263C93.1967 153.882 93.1817 154.191 93.1815 154.5C93.1815 154.754 93.192 155.013 93.2127 155.272H101.286C102.222 155.272 102.984 156.034 102.984 156.97C102.984 157.906 102.222 158.668 101.286 158.668H94.1361C95.337 161.08 97.5225 162.604 99.8577 162.604C101.458 162.604 103.007 161.9 104.223 160.622C104.382 160.455 104.573 160.323 104.784 160.232C104.995 160.141 105.223 160.094 105.453 160.093C105.89 160.093 106.306 160.26 106.623 160.561C106.949 160.871 107.138 161.298 107.15 161.748C107.161 162.198 106.994 162.635 106.684 162.961C104.821 164.921 102.397 166 99.8577 166ZM87.5473 156.198C87.1216 156.198 86.7755 156.544 86.7755 156.97C86.7755 157.395 87.1216 157.742 87.5473 157.742H90.8074C90.9063 157.742 91.0025 157.773 91.0821 157.832C91.1617 157.89 91.2205 157.973 91.2498 158.067C92.5539 162.258 96.0135 165.074 99.858 165.074C102.141 165.074 104.327 164.097 106.013 162.323C106.154 162.174 106.23 161.976 106.225 161.772C106.22 161.567 106.134 161.373 105.986 161.232C105.686 160.948 105.178 160.961 104.894 161.26C103.502 162.724 101.713 163.53 99.858 163.53C96.9436 163.53 94.2482 161.507 92.992 158.377C92.9636 158.307 92.9529 158.231 92.9608 158.156C92.9688 158.08 92.9951 158.008 93.0375 157.945C93.08 157.883 93.1372 157.831 93.2041 157.796C93.271 157.76 93.3456 157.742 93.4214 157.742H101.286C101.712 157.742 102.058 157.396 102.058 156.97C102.058 156.545 101.712 156.198 101.286 156.198H92.7938C92.6806 156.198 92.5713 156.157 92.4866 156.082C92.4019 156.007 92.3477 155.903 92.3341 155.791C92.2822 155.363 92.256 154.932 92.2557 154.5C92.2557 154.021 92.289 153.532 92.3551 153.048C92.3703 152.937 92.4252 152.836 92.5096 152.762C92.594 152.689 92.7021 152.648 92.8141 152.648H101.286C101.712 152.648 102.058 152.302 102.058 151.876C102.058 151.451 101.712 151.104 101.286 151.104H93.4872C93.4107 151.104 93.3354 151.086 93.268 151.049C93.2006 151.013 93.1432 150.961 93.1009 150.897C93.0586 150.834 93.0328 150.76 93.0258 150.684C93.0187 150.608 93.0307 150.531 93.0605 150.461C94.3605 147.382 96.9652 145.47 99.8577 145.47C101.714 145.47 103.502 146.276 104.894 147.741C105.178 148.039 105.685 148.053 105.986 147.768C106.134 147.627 106.219 147.433 106.225 147.228C106.23 147.024 106.153 146.826 106.013 146.677C104.326 144.903 102.141 143.926 99.8577 143.926C96.0743 143.926 92.6341 146.682 91.2964 150.784C91.2661 150.877 91.2072 150.958 91.1281 151.016C91.0491 151.073 90.9539 151.104 90.8562 151.104H87.5473C87.1216 151.104 86.7755 151.45 86.7755 151.876C86.7755 152.301 87.1216 152.648 87.5473 152.648H90.3274C90.3924 152.648 90.4568 152.661 90.5162 152.688C90.5756 152.714 90.6288 152.753 90.6722 152.802C90.7157 152.85 90.7484 152.907 90.7683 152.969C90.7882 153.031 90.7948 153.097 90.7877 153.161C90.7381 153.606 90.7127 154.053 90.7117 154.5C90.7117 154.886 90.7318 155.287 90.7713 155.69C90.7775 155.754 90.7703 155.819 90.75 155.88C90.7296 155.942 90.6967 155.998 90.6533 156.046C90.6099 156.094 90.557 156.132 90.4979 156.158C90.4389 156.185 90.375 156.198 90.3104 156.198L87.5473 156.198Z" fill="white"/>
</g>
<path d="M33.457 48.1758H26.4961C25.7344 48.1758 25.2422 47.6484 25.2422 46.8281V43.1953H18.9141C18.1406 43.1953 17.6602 42.7148 17.6602 41.9297V40.0781C17.6602 39.3047 18.1523 38.8125 18.9141 38.8125H25.2422V36.5742H18.9141C18.1406 36.5742 17.6602 36.0938 17.6602 35.3086V33.4688C17.6602 32.6953 18.1406 32.2148 18.9141 32.2148H23.7773L12.8789 13.6875C12.7734 13.4883 12.4453 12.8672 12.7617 12.3516C12.9609 12.0117 13.3477 11.8477 13.8867 11.8477H21.7031C22.1602 11.8477 22.8164 12.0117 23.3906 12.8086L23.4375 12.8789L30 25.3594L36.6094 12.8789C36.9375 12.2227 37.6172 11.8125 38.3555 11.8477H45.5273V11.8359H46.1133C46.6641 11.8359 47.0391 12.0117 47.2383 12.3516C47.4492 12.7031 47.4023 13.1602 47.1211 13.6875L47.1094 13.6992L36.2695 32.2266H41.0977C41.8945 32.2266 42.3984 32.707 42.3984 33.4805V35.3203C42.3984 36.1055 41.8945 36.5859 41.0977 36.5859H34.7226V38.8242H41.0977C41.918 38.8242 42.3984 39.293 42.3984 40.0898V41.9297C42.3984 42.7148 41.8945 43.1953 41.0977 43.1953H34.7226V46.8281C34.7226 47.6484 34.2305 48.1758 33.457 48.1758ZM26.4375 47.0039H33.457C33.4922 47.0039 33.5156 47.0039 33.5273 46.9922C33.5391 46.9688 33.5508 46.9102 33.5508 46.8281V42.0234H41.0977C41.1562 42.0234 41.2031 42.0234 41.2148 42.0117C41.2148 42 41.2266 41.9648 41.2266 41.9297V40.0078C41.2031 40.0078 41.168 39.9961 41.0977 39.9961H33.5508V35.4141H41.0977C41.1562 35.4141 41.2031 35.4141 41.2148 35.4023C41.2148 35.3906 41.2266 35.3555 41.2266 35.3203V33.4102C41.2031 33.4102 41.168 33.3984 41.0977 33.3984H34.2305L46.1016 13.1133C46.125 13.0781 46.1367 13.043 46.1484 13.0195H38.3203C38.0508 13.0078 37.7812 13.1602 37.6641 13.4063L37.6523 13.4297L30 27.8672L22.418 13.4414C22.0898 13.0078 21.8086 13.0078 21.7148 13.0078H13.8633C13.875 13.043 13.8984 13.0781 13.9219 13.125L25.8398 33.3867H18.8555V35.3086C18.8555 35.3438 18.8555 35.3789 18.8672 35.4023H26.4375V39.9844H18.8672C18.8672 40.0078 18.8555 40.0313 18.8555 40.0781V41.9297C18.8555 41.9648 18.8555 42 18.8672 42.0234H26.4375V46.8281C26.4141 46.9219 26.4258 46.9688 26.4375 47.0039Z" fill="white"/>
<path d="M186.669 45.8828C189.424 45.8828 191.577 46.5869 193.122 48.0088C194.667 49.4238 195.439 51.3447 195.439 53.7646H189.349C189.349 51.8301 188.515 50.8662 186.84 50.8662C186.211 50.8662 185.705 51.1191 185.329 51.6113C184.946 52.1104 184.755 52.8828 184.755 53.9287L184.919 57.9346H190.586V62.7334H185.124L185.22 64.8115C185.22 66.2197 184.857 67.3272 184.133 68.127H195.357V73.1104H175.615V68.127H177.516C178.22 67.9424 178.589 67.3066 178.623 66.2197L178.644 65.2354L178.555 62.7334H175.567V57.9346H178.411L178.302 53.9287C178.302 51.4062 179.054 49.4307 180.564 48.0088C182.062 46.5938 184.099 45.8828 186.669 45.8828ZM186.676 44.5156C183.757 44.5156 181.378 45.3564 179.621 47.0176C177.837 48.6992 176.928 51.0234 176.928 53.9287V53.9697L176.996 56.5742H175.561C174.802 56.5742 174.193 57.1826 174.193 57.9414V62.7402C174.193 63.4922 174.802 64.1074 175.561 64.1074H177.235L177.276 65.2559L177.256 66.1855C177.242 66.5 177.201 66.6709 177.167 66.7666H175.615C174.863 66.7666 174.248 67.3818 174.248 68.1338V73.1172C174.248 73.8691 174.863 74.4844 175.615 74.4844H195.351C196.103 74.4844 196.718 73.8691 196.718 73.1172V68.1338C196.718 67.3818 196.103 66.7666 195.351 66.7666H186.348C186.505 66.1719 186.58 65.5225 186.58 64.8184V64.7568L186.553 64.1074H190.586C191.338 64.1074 191.953 63.4922 191.953 62.7402V57.9414C191.953 57.1826 191.338 56.5742 190.586 56.5742H186.231L186.122 53.9082C186.129 52.9307 186.327 52.5615 186.409 52.4521C186.532 52.2949 186.635 52.2402 186.84 52.2402C187.257 52.2402 187.544 52.3223 187.687 52.4932C187.797 52.623 187.981 52.958 187.981 53.7715C187.981 54.5303 188.59 55.1387 189.349 55.1387H195.439C196.191 55.1387 196.807 54.5303 196.807 53.7715C196.807 50.9619 195.877 48.6855 194.045 47.0039C192.247 45.3564 189.766 44.5156 186.676 44.5156Z" fill="white"/>
<circle cx="213" cy="272" r="2" fill="white"/>
<circle cx="223" cy="272" r="2" fill="white"/>
<circle cx="233" cy="272" r="2" fill="white"/>
<path d="M163.334 232.923H155.716L153.174 232.913H153.165C152.722 232.913 152.282 233.001 151.872 233.17C151.463 233.34 151.09 233.589 150.776 233.903C150.463 234.217 150.214 234.589 150.044 234.999C149.874 235.409 149.787 235.848 149.787 236.292V251.153H146.185C145.88 251.154 145.587 251.275 145.371 251.491C145.156 251.706 145.034 251.999 145.034 252.304V256.716C145.034 257.021 145.156 257.313 145.371 257.529C145.587 257.745 145.88 257.866 146.185 257.866H149.788V260.068H146.185C145.88 260.068 145.587 260.19 145.371 260.405C145.156 260.621 145.034 260.913 145.034 261.218V265.434C145.034 265.739 145.156 266.032 145.371 266.247C145.587 266.463 145.879 266.585 146.185 266.585H149.788V277.124C149.788 277.488 149.933 277.837 150.191 278.094C150.448 278.351 150.797 278.496 151.161 278.496H155.22C155.584 278.496 155.933 278.351 156.19 278.094C156.447 277.837 156.592 277.488 156.593 277.124V266.585H169.9C170.207 266.585 170.501 266.463 170.717 266.246C170.934 266.029 171.056 265.736 171.056 265.429V261.224C171.056 260.917 170.934 260.623 170.717 260.407C170.501 260.19 170.207 260.068 169.9 260.068H156.592V257.866H162.573C166.779 257.839 170.227 256.482 172.543 253.94C174.672 251.605 175.637 248.474 175.335 244.885C175.321 241.71 174.052 238.669 171.803 236.428C169.554 234.186 166.51 232.926 163.334 232.923ZM171.243 252.757C169.266 254.926 166.264 256.085 162.567 256.109H156.054C155.73 256.109 155.42 256.238 155.192 256.467C154.963 256.695 154.834 257.006 154.834 257.329V260.481C154.834 260.837 154.976 261.179 155.229 261.431C155.481 261.684 155.823 261.826 156.179 261.826H169.298V264.827H156.179C155.823 264.828 155.481 264.97 155.229 265.222C154.976 265.474 154.834 265.816 154.834 266.173V276.739H151.545V266.172C151.544 265.816 151.403 265.474 151.15 265.221C150.898 264.969 150.556 264.827 150.2 264.827H146.791V261.826H150.2C150.556 261.825 150.898 261.683 151.15 261.431C151.402 261.179 151.544 260.837 151.545 260.48V257.282C151.545 256.971 151.421 256.673 151.201 256.453C150.981 256.233 150.683 256.109 150.372 256.108H146.791V252.911H150.368C150.68 252.911 150.979 252.787 151.2 252.566C151.421 252.345 151.545 252.046 151.545 251.734V236.292C151.545 235.862 151.715 235.45 152.019 235.146C152.323 234.843 152.735 234.672 153.164 234.672H153.169L155.713 234.681H163.334C166.05 234.684 168.653 235.764 170.573 237.685C172.494 239.605 173.574 242.208 173.577 244.923C173.577 244.949 173.578 244.974 173.58 244.999C173.848 248.102 173.04 250.785 171.243 252.757Z" fill="white"/>
<path d="M162.463 237.731H157.007C156.496 237.731 156.007 237.934 155.646 238.295C155.285 238.656 155.082 239.146 155.081 239.656V251.026C155.082 251.526 155.28 252.005 155.634 252.358C155.987 252.712 156.467 252.911 156.967 252.911H162.463C164.476 252.911 166.406 252.111 167.83 250.688C169.253 249.265 170.053 247.334 170.053 245.321C170.053 243.308 169.253 241.377 167.83 239.954C166.406 238.53 164.476 237.731 162.463 237.731ZM162.463 251.153H156.967C156.933 251.153 156.9 251.14 156.876 251.116C156.852 251.092 156.839 251.059 156.839 251.026V239.656C156.839 239.612 156.857 239.569 156.888 239.538C156.92 239.506 156.962 239.489 157.007 239.488H162.463C164.01 239.488 165.493 240.103 166.587 241.197C167.681 242.291 168.295 243.774 168.295 245.321C168.295 246.868 167.681 248.351 166.587 249.445C165.493 250.539 164.01 251.153 162.463 251.153Z" fill="white"/>
<defs>
<clipPath id="clip0_7_84">
<rect width="23" height="23" fill="white" transform="translate(85 143)"/>
</clipPath>
</defs>
</svg>
