<svg width="322" height="103" viewBox="0 0 322 103" fill="none" xmlns="http://www.w3.org/2000/svg">
<path d="M23.4035 25.9374C23.3429 25.8273 23.3047 25.7063 23.2909 25.5814C23.2771 25.4565 23.2881 25.3301 23.3232 25.2094C23.3583 25.0887 23.4168 24.9762 23.4954 24.8781C23.5741 24.7801 23.6712 24.6985 23.7814 24.638C25.9648 23.4565 28.3375 22.6648 30.7929 22.2985V18.5212C30.7929 18.2674 30.8937 18.024 31.0732 17.8445C31.2527 17.665 31.4961 17.5642 31.7499 17.5642H38.628C38.8818 17.5642 39.1252 17.665 39.3047 17.8445C39.4842 18.024 39.585 18.2674 39.585 18.5212V22.3587C45.3635 23.136 50.7763 25.6274 55.125 29.5112C55.3078 29.6688 55.4243 29.8897 55.4511 30.1295C55.478 30.3693 55.4133 30.6105 55.2699 30.8046L50.1293 37.7581C50.051 37.8641 49.9516 37.9528 49.8374 38.0187C49.7232 38.0845 49.5967 38.126 49.4657 38.1405C49.3347 38.1551 49.2021 38.1425 49.0762 38.1034C48.9503 38.0643 48.8339 37.9996 48.7342 37.9134C46.0965 35.5472 42.9741 33.7852 39.585 32.7504V44.9687C41.802 45.4699 43.9822 46.122 46.1103 46.9205C46.3186 47.0011 46.4921 47.152 46.6008 47.347C46.7095 47.542 46.7466 47.769 46.7056 47.9885C46.6647 48.208 46.5482 48.4063 46.3765 48.549C46.2048 48.6917 45.9885 48.7699 45.7652 48.77C45.6472 48.7702 45.5301 48.7483 45.4202 48.7055C43.1381 47.8567 40.7975 47.1744 38.4169 46.664C38.2051 46.616 38.016 46.4975 37.8804 46.3278C37.7449 46.1582 37.671 45.9476 37.6709 45.7305V31.5216C37.6707 31.3783 37.7026 31.2368 37.7644 31.1075C37.8261 30.9783 37.9161 30.8645 38.0277 30.7747C38.1393 30.6849 38.2697 30.6213 38.4092 30.5886C38.5487 30.5559 38.6937 30.555 38.8336 30.5858C42.6478 31.4902 46.1965 33.2772 49.1941 35.803L53.1945 30.389C49.0404 26.8889 43.93 24.7185 38.5268 24.1595C38.2918 24.1345 38.0744 24.0235 37.9164 23.8478C37.7584 23.6722 37.671 23.4442 37.6709 23.208V19.4783H32.7069V23.1319C32.7069 23.3657 32.6214 23.5913 32.4664 23.7663C32.3115 23.9413 32.0979 24.0535 31.8659 24.0819C29.3571 24.3618 26.9252 25.1199 24.7018 26.3153C24.4795 26.4373 24.2179 26.466 23.9744 26.3951C23.731 26.3242 23.5256 26.1596 23.4035 25.9374ZM47.3692 61.7517C47.3692 65.844 43.9819 68.8873 38.7401 69.5047C38.7029 69.5091 38.6654 69.5113 38.628 69.5113C38.3741 69.5113 38.1307 69.4105 37.9512 69.231C37.7718 69.0515 37.6709 68.8081 37.6709 68.5543V55.1012C37.6708 54.9523 37.7055 54.8054 37.7722 54.6723C37.8388 54.5391 37.9357 54.4234 38.0549 54.3343C38.1742 54.2452 38.3127 54.1852 38.4592 54.159C38.6058 54.1328 38.7565 54.1412 38.8992 54.1835C44.2635 55.7705 47.3692 57.5173 47.3692 61.7517ZM45.4551 61.7517C45.4551 59.223 43.9966 57.8421 39.585 56.4V67.4354C43.2343 66.7069 45.4551 64.59 45.4551 61.7517ZM49.5895 48.5469C49.369 48.4238 49.1087 48.3928 48.8655 48.4608C48.6223 48.5288 48.4158 48.6902 48.291 48.9097C48.1662 49.1293 48.1333 49.3893 48.1994 49.6331C48.2656 49.8768 48.4253 50.0846 48.644 50.211C49.1214 50.4844 49.5775 50.7694 49.998 51.0658C50.2058 51.2117 50.463 51.2691 50.7131 51.2253C50.9632 51.1816 51.1857 51.0403 51.3316 50.8325C51.4775 50.6248 51.5349 50.3675 51.4912 50.1174C51.4474 49.8674 51.3061 49.6449 51.0983 49.499C50.6108 49.1578 50.1073 48.84 49.5895 48.5469ZM53.9312 52.0868C53.8526 51.9859 53.7546 51.9017 53.6429 51.8393C53.5313 51.7769 53.4082 51.7375 53.2811 51.7235C53.154 51.7095 53.0253 51.7211 52.9027 51.7576C52.7801 51.7941 52.6661 51.8548 52.5674 51.9362C52.4687 52.0175 52.3873 52.1178 52.328 52.2312C52.2687 52.3445 52.2328 52.4686 52.2223 52.5961C52.2117 52.7235 52.2269 52.8518 52.2668 52.9733C52.3067 53.0949 52.3706 53.2072 52.4546 53.3036C54.1018 55.304 54.903 57.771 54.903 60.8455C54.903 69.3051 48.6418 74.9915 38.5629 75.6866C38.321 75.7033 38.0944 75.8111 37.9289 75.9883C37.7635 76.1656 37.6715 76.399 37.6715 76.6415V80.5243H32.7069V76.414C32.707 76.1799 32.6212 75.9539 32.4658 75.7788C32.3103 75.6037 32.0961 75.4918 31.8637 75.464C25.7833 74.7833 20.0575 72.2558 15.4574 68.2218L19.6968 62.9816C23.0717 65.9709 27.1503 68.0545 31.5503 69.0372C31.6898 69.0669 31.8341 69.0651 31.9728 69.0319C32.1115 68.9987 32.241 68.9349 32.3518 68.8452C32.4627 68.7555 32.5521 68.6422 32.6136 68.5135C32.675 68.3848 32.7069 68.2441 32.7069 68.1015V62.7147C32.7069 62.4609 32.6061 62.2175 32.4266 62.038C32.2472 61.8586 32.0037 61.7577 31.7499 61.7577C31.4961 61.7577 31.2527 61.8586 31.0732 62.038C30.8937 62.2175 30.7929 62.4609 30.7929 62.7147V66.8874C26.8332 65.7864 23.205 63.7286 20.2278 60.8953C20.1315 60.807 20.0182 60.7395 19.8948 60.6967C19.7714 60.6539 19.6405 60.6369 19.5103 60.6466C19.38 60.6563 19.2531 60.6926 19.1375 60.7533C19.0218 60.8139 18.9197 60.8976 18.8376 60.9992L13.3962 67.7258C13.2433 67.9149 13.168 68.1551 13.1858 68.3977C13.2036 68.6402 13.313 68.8669 13.4919 69.0317C18.276 73.4866 24.3175 76.3576 30.7929 77.2534V81.4786C30.7929 81.7324 30.8937 81.9758 31.0732 82.1553C31.2527 82.3348 31.4961 82.4356 31.7499 82.4356H38.628C38.8818 82.4356 39.1252 82.3348 39.3047 82.1553C39.4842 81.9758 39.585 81.7324 39.585 81.4786V77.5219C50.2398 76.4785 56.8165 70.1501 56.8165 60.8455C56.8165 57.3083 55.8726 54.4438 53.9312 52.0868ZM30.7929 54.1015V58.3868C30.7929 58.6406 30.8937 58.884 31.0732 59.0635C31.2527 59.243 31.4961 59.3438 31.7499 59.3438C32.0037 59.3438 32.2472 59.243 32.4266 59.0635C32.6061 58.884 32.7069 58.6406 32.7069 58.3868V53.3632C32.7069 53.1513 32.6366 52.9454 32.5069 52.7779C32.3773 52.6103 32.1956 52.4905 31.9905 52.4373C22.8211 50.0513 17.138 46.921 17.138 38.7009C17.1185 36.8289 17.4888 34.9733 18.2253 33.2521C18.9618 31.531 20.0485 29.9819 21.4162 28.7035C21.5971 28.5278 21.7014 28.2879 21.7063 28.0357C21.7113 27.7836 21.6165 27.5397 21.4427 27.3571C21.2688 27.1744 21.0299 27.0677 20.7778 27.0603C20.5258 27.0528 20.2809 27.1451 20.0966 27.3172C18.5489 28.7805 17.318 30.5457 16.4798 32.5038C15.6417 34.4619 15.2143 36.5711 15.2239 38.7009C15.2239 47.8906 21.4173 51.564 30.7929 54.1015ZM32.3405 30.6187C32.4547 30.7082 32.547 30.8226 32.6104 30.953C32.6739 31.0835 32.7069 31.2266 32.7069 31.3717V43.9159C32.7068 44.1697 32.6059 44.413 32.4265 44.5925C32.247 44.7719 32.0037 44.8728 31.7499 44.873C31.6417 44.873 31.5342 44.8545 31.4322 44.8183C27.9601 43.5971 24.7466 41.9094 24.7466 37.8697C24.7466 34.4178 27.4695 31.4324 31.5224 30.4398C31.6633 30.4059 31.8101 30.4041 31.9517 30.4348C32.0934 30.4655 32.2263 30.5278 32.3405 30.617V30.6187ZM30.7929 32.6766C28.2773 33.6675 26.6607 35.6505 26.6607 37.8719C26.6607 39.9899 27.7692 41.2876 30.7929 42.5318V32.6766Z" fill="white"/>
<g clip-path="url(#clip0_315_3)">
<path d="M100.858 43C96.7068 43 92.9728 40.0677 91.4712 35.6678H88.5472C87.6112 35.6678 86.8492 34.9062 86.8492 33.9698C86.8492 33.0334 87.6112 32.2718 88.5472 32.2718H90.8093C90.7745 31.7062 90.778 31.1389 90.8198 30.5738H88.5472C87.6112 30.5738 86.8492 29.8122 86.8492 28.8758C86.8492 27.9395 87.6112 27.1779 88.5472 27.1779H91.5249C93.0602 22.8702 96.7729 20 100.858 20C103.397 20 105.821 21.0793 107.684 23.0391C107.994 23.3658 108.161 23.8019 108.15 24.252C108.138 24.702 107.949 25.1292 107.623 25.4397C107.308 25.7402 106.889 25.9076 106.453 25.9068C105.99 25.9068 105.542 25.7142 105.223 25.3789C104.007 24.1002 102.457 23.3963 100.858 23.3963C98.5484 23.3963 96.4376 24.8281 95.2157 27.1782H102.285C103.222 27.1782 103.983 27.9398 103.983 28.8761C103.983 29.8125 103.222 30.5741 102.285 30.5741H94.2262C94.1966 30.882 94.1817 31.191 94.1815 31.5003C94.1815 31.7544 94.192 32.0128 94.2126 32.2721H102.285C103.222 32.2721 103.983 33.0337 103.983 33.9701C103.983 34.9065 103.222 35.6681 102.285 35.6681H95.136C96.337 38.0802 98.5224 39.6043 100.858 39.6043C102.457 39.6043 104.007 38.9001 105.223 37.6217C105.382 37.4552 105.572 37.3225 105.784 37.2317C105.995 37.1409 106.223 37.0939 106.453 37.0935C106.89 37.0935 107.306 37.2596 107.623 37.5606C107.949 37.8711 108.138 38.2983 108.15 38.7483C108.161 39.1984 107.994 39.6346 107.684 39.9612C105.821 41.9207 103.397 43 100.858 43ZM88.5472 33.198C88.1215 33.198 87.7754 33.5444 87.7754 33.9698C87.7754 34.3952 88.1215 34.7416 88.5472 34.7416H91.8074C91.9062 34.7416 92.0025 34.7732 92.0821 34.8318C92.1617 34.8904 92.2204 34.9729 92.2498 35.0673C93.5538 39.2579 97.0134 42.0738 100.858 42.0738C103.141 42.0738 105.327 41.0967 107.013 39.3228C107.154 39.1743 107.23 38.976 107.225 38.7715C107.22 38.567 107.134 38.3729 106.986 38.2317C106.686 37.9477 106.178 37.961 105.894 38.2595C104.502 39.7241 102.713 40.5302 100.858 40.5302C97.9436 40.5302 95.2481 38.5074 93.9919 35.3773C93.9635 35.307 93.9528 35.2309 93.9608 35.1556C93.9687 35.0803 93.9951 35.008 94.0375 34.9453C94.0799 34.8825 94.1371 34.8311 94.204 34.7957C94.271 34.7602 94.3456 34.7418 94.4213 34.7419H102.286C102.712 34.7419 103.058 34.3955 103.058 33.9701C103.058 33.5447 102.712 33.1983 102.286 33.1983H93.7937C93.6805 33.1983 93.5712 33.1568 93.4866 33.0817C93.4019 33.0066 93.3476 32.9031 93.334 32.7908C93.2822 32.3626 93.256 31.9316 93.2556 31.5003C93.2556 31.0205 93.2889 30.5318 93.355 30.0484C93.3702 29.9374 93.4251 29.8357 93.5095 29.7621C93.5939 29.6885 93.7021 29.648 93.8141 29.648H102.286C102.712 29.648 103.058 29.3016 103.058 28.8761C103.058 28.4507 102.712 28.1043 102.286 28.1043H94.4871C94.4106 28.1044 94.3353 28.0856 94.2679 28.0494C94.2005 28.0133 94.1431 27.9611 94.1008 27.8973C94.0586 27.8336 94.0328 27.7604 94.0257 27.6842C94.0187 27.6081 94.0306 27.5314 94.0604 27.461C95.3605 24.382 97.9652 22.4698 100.858 22.4698C102.714 22.4698 104.502 23.2762 105.894 24.7408C106.178 25.0393 106.685 25.0529 106.986 24.7683C107.133 24.627 107.219 24.4329 107.225 24.2284C107.23 24.0239 107.153 23.8257 107.013 23.6772C105.326 21.9033 103.141 20.9262 100.858 20.9262C97.0742 20.9262 93.6341 23.6825 92.2964 27.7845C92.2661 27.8774 92.2071 27.9583 92.1281 28.0157C92.049 28.073 91.9538 28.104 91.8561 28.104H88.5472C88.1215 28.104 87.7754 28.4504 87.7754 28.8758C87.7754 29.3013 88.1215 29.6477 88.5472 29.6477H91.3273C91.3924 29.6477 91.4567 29.6614 91.5162 29.6879C91.5756 29.7145 91.6288 29.7532 91.6722 29.8017C91.7156 29.8502 91.7483 29.9073 91.7682 29.9692C91.7881 30.0312 91.7947 30.0967 91.7876 30.1614C91.738 30.6059 91.7127 31.0527 91.7117 31.5C91.7117 31.8862 91.7317 32.2866 91.7712 32.6898C91.7775 32.7541 91.7702 32.8191 91.7499 32.8804C91.7296 32.9417 91.6967 32.9981 91.6533 33.046C91.6099 33.0939 91.5569 33.1322 91.4979 33.1584C91.4388 33.1846 91.3749 33.1982 91.3103 33.1983L88.5472 33.198Z" fill="white"/>
</g>
<path d="M148.457 91.1758H141.496C140.734 91.1758 140.242 90.6484 140.242 89.8281V86.1953H133.914C133.141 86.1953 132.66 85.7148 132.66 84.9297V83.0781C132.66 82.3047 133.152 81.8125 133.914 81.8125H140.242V79.5742H133.914C133.141 79.5742 132.66 79.0938 132.66 78.3086V76.4688C132.66 75.6953 133.141 75.2148 133.914 75.2148H138.777L127.879 56.6875C127.773 56.4883 127.445 55.8672 127.762 55.3516C127.961 55.0117 128.348 54.8477 128.887 54.8477H136.703C137.16 54.8477 137.816 55.0117 138.391 55.8086L138.437 55.8789L145 68.3594L151.609 55.8789C151.937 55.2227 152.617 54.8125 153.355 54.8477H160.527V54.8359H161.113C161.664 54.8359 162.039 55.0117 162.238 55.3516C162.449 55.7031 162.402 56.1602 162.121 56.6875L162.109 56.6992L151.27 75.2266H156.098C156.895 75.2266 157.398 75.707 157.398 76.4805V78.3203C157.398 79.1055 156.895 79.5859 156.098 79.5859H149.723V81.8242H156.098C156.918 81.8242 157.398 82.293 157.398 83.0898V84.9297C157.398 85.7148 156.895 86.1953 156.098 86.1953H149.723V89.8281C149.723 90.6484 149.23 91.1758 148.457 91.1758ZM141.437 90.0039H148.457C148.492 90.0039 148.516 90.0039 148.527 89.9922C148.539 89.9688 148.551 89.9102 148.551 89.8281V85.0234H156.098C156.156 85.0234 156.203 85.0234 156.215 85.0117C156.215 85 156.227 84.9648 156.227 84.9297V83.0078C156.203 83.0078 156.168 82.9961 156.098 82.9961H148.551V78.4141H156.098C156.156 78.4141 156.203 78.4141 156.215 78.4023C156.215 78.3906 156.227 78.3555 156.227 78.3203V76.4102C156.203 76.4102 156.168 76.3984 156.098 76.3984H149.23L161.102 56.1133C161.125 56.0781 161.137 56.043 161.148 56.0195H153.32C153.051 56.0078 152.781 56.1602 152.664 56.4063L152.652 56.4297L145 70.8672L137.418 56.4414C137.09 56.0078 136.809 56.0078 136.715 56.0078H128.863C128.875 56.043 128.898 56.0781 128.922 56.125L140.84 76.3867H133.855V78.3086C133.855 78.3438 133.855 78.3789 133.867 78.4023H141.437V82.9844H133.867C133.867 83.0078 133.855 83.0313 133.855 83.0781V84.9297C133.855 84.9648 133.855 85 133.867 85.0234H141.437V89.8281C141.414 89.9219 141.426 89.9688 141.437 90.0039Z" fill="white"/>
<path d="M193.669 3.88281C196.424 3.88281 198.577 4.58691 200.122 6.00879C201.667 7.42383 202.439 9.34473 202.439 11.7646H196.349C196.349 9.83008 195.515 8.86621 193.84 8.86621C193.211 8.86621 192.705 9.11914 192.329 9.61133C191.946 10.1104 191.755 10.8828 191.755 11.9287L191.919 15.9346H197.586V20.7334H192.124L192.22 22.8115C192.22 24.2197 191.857 25.3272 191.133 26.127H202.357V31.1104H182.615V26.127H184.516C185.22 25.9424 185.589 25.3066 185.623 24.2197L185.644 23.2354L185.555 20.7334H182.567V15.9346H185.411L185.302 11.9287C185.302 9.40625 186.054 7.43066 187.564 6.00879C189.062 4.59375 191.099 3.88281 193.669 3.88281ZM193.676 2.51562C190.757 2.51562 188.378 3.35645 186.621 5.01758C184.837 6.69922 183.928 9.02344 183.928 11.9287V11.9697L183.996 14.5742H182.561C181.802 14.5742 181.193 15.1826 181.193 15.9414V20.7402C181.193 21.4922 181.802 22.1074 182.561 22.1074H184.235L184.276 23.2559L184.256 24.1855C184.242 24.5 184.201 24.6709 184.167 24.7666H182.615C181.863 24.7666 181.248 25.3818 181.248 26.1338V31.1172C181.248 31.8691 181.863 32.4844 182.615 32.4844H202.351C203.103 32.4844 203.718 31.8691 203.718 31.1172V26.1338C203.718 25.3818 203.103 24.7666 202.351 24.7666H193.348C193.505 24.1719 193.58 23.5225 193.58 22.8184V22.7568L193.553 22.1074H197.586C198.338 22.1074 198.953 21.4922 198.953 20.7402V15.9414C198.953 15.1826 198.338 14.5742 197.586 14.5742H193.231L193.122 11.9082C193.129 10.9307 193.327 10.5615 193.409 10.4521C193.532 10.2949 193.635 10.2402 193.84 10.2402C194.257 10.2402 194.544 10.3223 194.688 10.4932C194.797 10.623 194.981 10.958 194.981 11.7715C194.981 12.5303 195.59 13.1387 196.349 13.1387H202.439C203.191 13.1387 203.807 12.5303 203.807 11.7715C203.807 8.96191 202.877 6.68555 201.045 5.00391C199.247 3.35645 196.766 2.51562 193.676 2.51562Z" fill="white"/>
<path d="M251.334 25.9228H243.716L241.174 25.9131H241.165C240.722 25.9131 240.282 26.0006 239.872 26.1704C239.463 26.3402 239.09 26.5891 238.776 26.9028C238.463 27.2166 238.214 27.5891 238.044 27.999C237.874 28.4089 237.787 28.8482 237.787 29.2919V44.1532H234.185C233.88 44.1536 233.587 44.2749 233.371 44.4906C233.156 44.7062 233.034 44.9987 233.034 45.3037V49.7158C233.034 50.0208 233.156 50.3132 233.371 50.5289C233.587 50.7445 233.88 50.8658 234.185 50.8661H237.788V53.0678H234.185C233.88 53.0682 233.587 53.1895 233.371 53.4052C233.156 53.6208 233.034 53.9133 233.034 54.2183V58.4339C233.034 58.739 233.156 59.0316 233.371 59.2474C233.587 59.4631 233.879 59.5845 234.185 59.5849H237.788V70.1238C237.788 70.4877 237.933 70.8366 238.191 71.0939C238.448 71.3511 238.797 71.4959 239.161 71.4962H243.22C243.584 71.4958 243.933 71.3511 244.19 71.0938C244.447 70.8365 244.592 70.4877 244.593 70.1238V59.5849H257.9C258.207 59.5845 258.501 59.4626 258.717 59.2459C258.934 59.0292 259.056 58.7354 259.056 58.429V54.2235C259.056 53.9171 258.934 53.6233 258.717 53.4067C258.501 53.19 258.207 53.0681 257.9 53.0678H244.592V50.8661H250.573C254.779 50.8393 258.227 49.4818 260.543 46.9403C262.672 44.6045 263.637 41.4738 263.335 37.8847C263.321 34.7097 262.052 31.6691 259.803 29.4277C257.554 27.1862 254.51 25.9261 251.334 25.9228ZM259.243 45.7567C257.266 47.926 254.264 49.0852 250.567 49.1087H244.054C243.73 49.1091 243.42 49.2378 243.192 49.4666C242.963 49.6953 242.834 50.0055 242.834 50.329V53.4806C242.834 53.8372 242.976 54.1791 243.229 54.4313C243.481 54.6835 243.823 54.8254 244.179 54.826H257.298V57.8271H244.179C243.823 57.8276 243.481 57.9696 243.229 58.2218C242.976 58.474 242.834 58.816 242.834 59.1727V69.7384H239.545V59.1721C239.544 58.8154 239.403 58.4735 239.15 58.2212C238.898 57.969 238.556 57.827 238.2 57.8265H234.791V54.8256H238.2C238.556 54.825 238.898 54.6831 239.15 54.4309C239.402 54.1787 239.544 53.8368 239.545 53.4801V50.2818C239.545 49.9707 239.421 49.6724 239.201 49.4524C238.981 49.2325 238.683 49.1087 238.372 49.1083H234.791V45.911H238.368C238.68 45.9106 238.979 45.7865 239.2 45.5659C239.421 45.3453 239.545 45.0461 239.545 44.7341V29.2919C239.545 28.8623 239.715 28.4502 240.019 28.1464C240.323 27.8425 240.735 27.6717 241.164 27.6715H241.169L243.713 27.6812H251.334C254.05 27.6843 256.653 28.7643 258.573 30.6844C260.494 32.6046 261.574 35.2079 261.577 37.9233C261.577 37.9485 261.578 37.9739 261.58 37.9991C261.848 41.1019 261.04 43.7845 259.243 45.7567Z" fill="white"/>
<path d="M250.463 30.7305H245.007C244.496 30.731 244.007 30.9341 243.646 31.2951C243.285 31.6562 243.082 32.1457 243.081 32.6563V44.0254C243.081 44.5253 243.28 45.0046 243.634 45.3581C243.987 45.7116 244.467 45.9104 244.967 45.9109H250.463C252.476 45.9109 254.406 45.1113 255.83 43.6878C257.253 42.2644 258.053 40.3338 258.053 38.3207C258.053 36.3076 257.253 34.377 255.83 32.9536C254.406 31.5302 252.476 30.7305 250.463 30.7305ZM250.463 44.1531H244.967C244.933 44.1531 244.9 44.1396 244.876 44.1157C244.852 44.0917 244.839 44.0593 244.839 44.0254V32.6563C244.839 32.6117 244.857 32.5691 244.888 32.5376C244.92 32.5061 244.962 32.4884 245.007 32.4883H250.463C252.01 32.4883 253.493 33.1028 254.587 34.1966C255.681 35.2903 256.295 36.7738 256.295 38.3207C256.295 39.8676 255.681 41.3511 254.587 42.4448C253.493 43.5386 252.01 44.1531 250.463 44.1531Z" fill="white"/>
<circle cx="300" cy="75" r="2" fill="white"/>
<circle cx="310" cy="75" r="2" fill="white"/>
<circle cx="320" cy="75" r="2" fill="white"/>
<defs>
<clipPath id="clip0_315_3">
<rect width="23" height="23" fill="white" transform="translate(86 20)"/>
</clipPath>
</defs>
</svg>
