<svg width="23" height="23" viewBox="0 0 23 23" fill="none" xmlns="http://www.w3.org/2000/svg">
<path d="M5.47515 23C4.35008 23.0001 3.22537 22.5719 2.36889 21.7154C0.656111 20.0026 0.656066 17.2157 2.36889 15.5029L13.9709 3.90088C15.0865 2.78511 16.902 2.78511 18.0177 3.90088C19.1334 5.01665 19.1334 6.83208 18.0177 7.94776L8.42674 17.5387C8.16359 17.8019 7.73688 17.8019 7.47372 17.5387C7.21057 17.2756 7.21057 16.8488 7.47372 16.5857L17.0647 6.99474C17.3506 6.70881 17.5081 6.32868 17.5081 5.92434C17.5081 5.52 17.3506 5.13987 17.0647 4.85394C16.7788 4.56802 16.3986 4.41052 15.9943 4.41052C15.5899 4.41052 15.2098 4.56797 14.9239 4.8539L3.32191 16.4559C2.13462 17.6432 2.13462 19.5751 3.32191 20.7624C4.50919 21.9496 6.44111 21.9497 7.62844 20.7624L19.2304 9.16047C21.0147 7.37608 21.0147 4.47265 19.2304 2.68826C18.3659 1.82387 17.2167 1.34779 15.9942 1.34779C14.7718 1.34779 13.6225 1.82387 12.7581 2.68826L3.1672 12.2792C2.90405 12.5423 2.47733 12.5423 2.21418 12.2792C1.95103 12.016 1.95103 11.5893 2.21418 11.3262L11.8051 1.7352C12.9241 0.616238 14.4118 0 15.9942 0C17.5767 0 19.0644 0.616238 20.1833 1.7352C22.4932 4.04508 22.4932 7.80351 20.1833 10.1134L8.58145 21.7154C7.72511 22.5717 6.59995 22.9999 5.47515 23Z" fill="#29D5AA"/>
</svg>
