<svg width="96" height="76" viewBox="0 0 96 76" fill="none" xmlns="http://www.w3.org/2000/svg">
<path d="M8.59499 36.4384L35.3502 9.64748C38.6426 6.35068 43.9798 6.35068 47.2722 9.64748L48.3466 10.7233C51.639 14.0201 51.639 19.3644 48.3466 22.6612L21.5914 49.452C18.299 52.7489 12.9618 52.7489 9.66935 49.452L8.59499 48.3763C5.30257 45.0794 5.30257 39.7352 8.59499 36.4384Z" fill="#3E414E"/>
<path d="M43.2174 36.5078L69.834 9.85571C73.1264 6.5589 78.4636 6.5589 81.756 9.85571L83.4888 11.5909C86.7813 14.8877 86.7813 20.232 83.4888 23.5288L56.8722 50.1808C53.5798 53.4776 48.2426 53.4776 44.9502 50.1808L43.2174 48.4457C39.9249 45.1489 39.9249 39.8046 43.2174 36.5078Z" fill="#3E414E"/>
<path d="M3.63901 35.7443L30.8448 8.53699C34.5877 4.78904 40.6874 4.78904 44.4303 8.53699C48.1733 12.2849 48.1733 18.3927 44.4303 22.1406L17.2246 49.3826C13.4816 53.1306 7.38197 53.1306 3.63901 49.3826C-0.103953 45.6 -0.103953 39.5269 3.63901 35.7443Z" fill="#1386E5"/>
<path d="M37.8801 35.7443L65.0859 8.50228C68.8289 4.75434 74.9285 4.75434 78.6715 8.50228L79.6765 9.50867C83.4195 13.2566 83.4195 19.3644 79.6765 23.1123L52.4708 50.3543C48.7278 54.1023 42.6282 54.1023 38.8852 50.3543L37.8801 49.3479C34.1025 45.6 34.1025 39.5269 37.8801 35.7443Z" fill="white"/>
<path d="M3.53504 38.4511L17.5711 24.3963C19.5812 22.3836 22.8737 22.3836 24.9184 24.3963C26.9285 26.4091 26.9285 29.7059 24.9184 31.7534L10.8823 45.8082C8.87222 47.821 5.5798 47.821 3.53504 45.8082C1.49027 43.7607 1.49027 40.4986 3.53504 38.4511Z" fill="#126FBB"/>
<path d="M38.2614 38.4511L52.3322 24.3963C54.3423 22.3836 57.6347 22.3836 59.6794 24.3963C61.6896 26.4091 61.6896 29.7059 59.6794 31.7534L45.6433 45.8082C43.6332 47.821 40.3408 47.821 38.2961 45.8082C36.2513 43.7607 36.2513 40.4986 38.2614 38.4511Z" fill="#CAD8E3"/>
<path d="M84.6325 53.6858C90.4704 53.6858 95.2029 48.947 95.2029 43.1014C95.2029 37.2557 90.4704 32.5169 84.6325 32.5169C78.7947 32.5169 74.0621 37.2557 74.0621 43.1014C74.0621 48.947 78.7947 53.6858 84.6325 53.6858Z" fill="#3E414E"/>
<path d="M81.1668 53.8594C87.1004 53.8594 91.9105 49.0428 91.9105 43.1014C91.9105 37.1599 87.1004 32.3434 81.1668 32.3434C75.2332 32.3434 70.4231 37.1599 70.4231 43.1014C70.4231 49.0428 75.2332 53.8594 81.1668 53.8594Z" fill="white"/>
<path d="M78.8794 47.3699C82.1142 47.3699 84.7365 44.7441 84.7365 41.505C84.7365 38.266 82.1142 35.6402 78.8794 35.6402C75.6447 35.6402 73.0224 38.266 73.0224 41.505C73.0224 44.7441 75.6447 47.3699 78.8794 47.3699Z" fill="#CAD8E2"/>
<path d="M1.69819 59.4466V68.3306H0.554504V59.4466H1.69819Z" fill="white"/>
<path d="M3.81229 63.6804C3.81229 63.021 3.8123 62.4657 3.74298 61.9452H4.78269L4.85201 62.9863H4.88666C5.19858 62.3963 5.92637 61.7717 7.00074 61.7717C7.86717 61.7717 9.25345 62.2922 9.25345 64.4785V68.2959H8.10977V64.6173C8.10977 63.5762 7.72854 62.7434 6.61952 62.7434C5.85706 62.7434 5.26789 63.2986 5.05995 63.9233C4.99063 64.0621 4.99063 64.2703 4.99063 64.4785V68.3306H3.81229V63.6804Z" fill="white"/>
<path d="M16.6354 58.9607V66.6648C16.6354 67.2201 16.6354 67.8794 16.7047 68.2959H15.665L15.5957 67.1854H15.561C15.2144 67.9142 14.4173 68.4347 13.3776 68.4347C11.8527 68.4347 10.6397 67.116 10.6397 65.2073C10.6397 63.0904 11.9567 61.7717 13.4816 61.7717C14.452 61.7717 15.1105 62.2228 15.3877 62.7434H15.4224V58.926H16.6354V58.9607ZM15.457 64.5479C15.457 64.4091 15.457 64.2009 15.3877 64.0621C15.2144 63.3333 14.5906 62.7087 13.7242 62.7087C12.5112 62.7087 11.818 63.7498 11.818 65.1726C11.818 66.4566 12.4419 67.5324 13.6895 67.5324C14.452 67.5324 15.1798 67.0119 15.3877 66.1443C15.4224 65.9708 15.457 65.832 15.457 65.6584V64.5479Z" fill="white"/>
<path d="M23.8787 66.5954C23.8787 67.2548 23.8787 67.8447 23.948 68.3306H22.9083L22.839 67.2895H22.8043C22.4924 67.81 21.8339 68.4694 20.6902 68.4694C19.6852 68.4694 18.5068 67.9141 18.5068 65.6584V61.9105H19.6505V65.4502C19.6505 66.6648 20.0317 67.4977 21.0715 67.4977C21.8339 67.4977 22.3884 66.9425 22.5964 66.4566C22.6657 66.2831 22.7003 66.0749 22.7003 65.8667V61.9452H23.844V66.5954H23.8787Z" fill="white"/>
<path d="M25.6462 67.116C25.9928 67.3242 26.5819 67.5671 27.1711 67.5671C28.0029 67.5671 28.4188 67.1507 28.4188 66.6301C28.4188 66.0749 28.1068 65.7626 27.2404 65.4502C26.0967 65.0338 25.5422 64.4091 25.5422 63.6457C25.5422 62.6046 26.374 61.7717 27.7256 61.7717C28.3841 61.7717 28.9386 61.9452 29.2852 62.1534L29.0079 62.9863C28.7653 62.8128 28.2801 62.6046 27.691 62.6046C26.9978 62.6046 26.6166 62.9863 26.6166 63.4721C26.6166 63.9927 26.9978 64.2356 27.8296 64.5479C28.9386 64.9644 29.4931 65.5196 29.4931 66.4566C29.4931 67.5671 28.6267 68.3653 27.1018 68.3653C26.4086 68.3653 25.7502 68.1918 25.2996 67.9141L25.6462 67.116Z" fill="white"/>
<path d="M32.4043 60.1059V61.9452H34.0678V62.8128H32.4043V66.2484C32.4043 67.0466 32.6122 67.4977 33.2707 67.4977C33.5826 67.4977 33.7906 67.463 33.9292 67.4283L33.9985 68.2959C33.7906 68.4 33.4094 68.4694 32.9588 68.4694C32.4043 68.4694 31.9884 68.2959 31.7112 67.9836C31.3992 67.6365 31.2606 67.0813 31.2606 66.3178V62.8475H30.2902V61.9799H31.2606V60.453L32.4043 60.1059Z" fill="white"/>
<path d="M35.3848 63.9233C35.3848 63.1598 35.3848 62.5352 35.3155 61.9452H36.3205L36.3552 63.1945H36.4245C36.7018 62.3269 37.3949 61.8064 38.192 61.8064C38.3307 61.8064 38.4 61.8064 38.5039 61.8411V62.9516C38.4 62.9169 38.2613 62.9169 38.1227 62.9169C37.2909 62.9169 36.7364 63.5416 36.5631 64.4091C36.5285 64.5827 36.4938 64.7562 36.4938 64.9644V68.3653H35.3501V63.9233H35.3848Z" fill="white"/>
<path d="M41.0339 60.1406C41.0339 60.5224 40.7567 60.8694 40.3061 60.8694C39.8902 60.8694 39.613 60.5571 39.613 60.1406C39.613 59.7242 39.9249 59.4119 40.3408 59.4119C40.7567 59.4119 41.0339 59.7242 41.0339 60.1406ZM39.7169 68.3306V61.9452H40.8606V68.3306H39.7169Z" fill="white"/>
<path d="M46.3364 68.3306L46.2325 67.5324H46.1978C45.8512 68.0183 45.1581 68.4694 44.257 68.4694C42.9747 68.4694 42.3162 67.5671 42.3162 66.6301C42.3162 65.1032 43.7025 64.2356 46.1632 64.2703V64.1315C46.1632 63.611 46.0245 62.6393 44.7076 62.6393C44.1184 62.6393 43.4946 62.8128 43.044 63.1251L42.7668 62.3616C43.2866 62.0146 44.0491 61.8064 44.8462 61.8064C46.787 61.8064 47.2722 63.1251 47.2722 64.4091V66.8037C47.2722 67.3589 47.3068 67.9142 47.3762 68.3306H46.3364ZM46.1632 65.0685C44.9155 65.0338 43.4599 65.2767 43.4599 66.4913C43.4599 67.2548 43.9451 67.6018 44.5689 67.6018C45.4007 67.6018 45.9206 67.0813 46.0938 66.526C46.1285 66.4219 46.1632 66.2831 46.1632 66.1443V65.0685Z" fill="white"/>
<path d="M49.1783 58.9607H50.322V68.3306H49.1783V58.9607Z" fill="white"/>
<path d="M62.5906 64.4091C62.5213 63.1598 62.4519 61.6676 62.4519 60.5571H62.4173C62.1054 61.5982 61.7588 62.7087 61.3083 63.9233L59.7487 68.2265H58.8823L57.4613 63.9927C57.0455 62.7434 56.6989 61.5982 56.4216 60.5224H56.387C56.3523 61.6329 56.283 63.1251 56.2137 64.4438L55.9711 68.2612H54.8621L55.4859 59.3772H56.9415L58.4664 63.6804C58.8476 64.7909 59.1249 65.7626 59.3675 66.6648H59.4021C59.6101 65.7626 59.9566 64.7909 60.3379 63.6804L61.9321 59.3772H63.3877L63.9422 68.2612H62.8332L62.5906 64.4091Z" fill="white"/>
<path d="M71.4975 65.0685C71.4975 67.4283 69.8686 68.4694 68.309 68.4694C66.5762 68.4694 65.2592 67.2201 65.2592 65.1726C65.2592 63.021 66.6455 61.7717 68.413 61.7717C70.2498 61.8064 71.4975 63.1251 71.4975 65.0685ZM66.4376 65.1379C66.4376 66.526 67.2347 67.6018 68.3784 67.6018C69.4874 67.6018 70.3191 66.5607 70.3191 65.1379C70.3191 64.0621 69.7646 62.674 68.413 62.674C67.0614 62.674 66.4376 63.9233 66.4376 65.1379Z" fill="white"/>
<path d="M78.4635 58.9607V66.6648C78.4635 67.2201 78.4635 67.8794 78.5328 68.2959H77.4931L77.4238 67.1854H77.3891C77.0426 67.9142 76.2454 68.4347 75.2057 68.4347C73.6808 68.4347 72.4678 67.116 72.4678 65.2073C72.4678 63.0904 73.7848 61.7717 75.3097 61.7717C76.2801 61.7717 76.9386 62.2228 77.2158 62.7434H77.2505V58.926H78.4635V58.9607ZM77.3198 64.5479C77.3198 64.4091 77.3198 64.2009 77.2505 64.0621C77.0772 63.3333 76.4534 62.7087 75.587 62.7087C74.374 62.7087 73.6808 63.7498 73.6808 65.1726C73.6808 66.4566 74.3047 67.5324 75.5523 67.5324C76.3148 67.5324 77.0426 67.0119 77.2505 66.1443C77.2852 65.9708 77.3198 65.832 77.3198 65.6584V64.5479Z" fill="white"/>
<path d="M85.7069 66.5954C85.7069 67.2548 85.7069 67.8447 85.7762 68.3306H84.7365L84.6672 67.2895H84.6325C84.3206 67.81 83.6621 68.4694 82.5184 68.4694C81.5134 68.4694 80.335 67.9141 80.335 65.6584V61.9105H81.4787V65.4502C81.4787 66.6648 81.8599 67.4977 82.8996 67.4977C83.6621 67.4977 84.2166 66.9425 84.4246 66.4566C84.4939 66.2831 84.5285 66.0749 84.5285 65.8667V61.9452H85.6722V66.5954H85.7069Z" fill="white"/>
<path d="M87.6476 58.9607H88.7913V68.3306H87.6476V58.9607Z" fill="white"/>
<path d="M91.3906 65.3461C91.4253 66.9078 92.4303 67.5671 93.574 67.5671C94.4058 67.5671 94.891 67.4283 95.3415 67.2548L95.5494 68.0877C95.1336 68.2612 94.4404 68.4694 93.4354 68.4694C91.4599 68.4694 90.3162 67.1854 90.3162 65.242C90.3162 63.3333 91.4599 61.8064 93.2967 61.8064C95.3762 61.8064 95.9307 63.6457 95.9307 64.8256C95.9307 65.0685 95.896 65.242 95.896 65.3808H91.3906V65.3461ZM94.787 64.5132C94.787 63.7845 94.4751 62.6393 93.1928 62.6393C92.0144 62.6393 91.4946 63.7151 91.4252 64.5132H94.787Z" fill="white"/>
</svg>
