<svg width="35" height="35" viewBox="0 0 35 35" fill="none" xmlns="http://www.w3.org/2000/svg">
<g clip-path="url(#clip0_75_445)">
<path d="M17.5 35C27.165 35 35 27.165 35 17.5C35 7.83502 27.165 0 17.5 0C7.83502 0 0 7.83502 0 17.5C0 27.165 7.83502 35 17.5 35Z" fill="#29A71A"/>
<path d="M25.2159 9.78406C23.3951 7.94517 20.9772 6.81743 18.3982 6.60428C15.8192 6.39112 13.249 7.10657 11.1511 8.62159C9.05312 10.1366 7.56563 12.3514 6.95689 14.8666C6.34815 17.3818 6.65823 20.0317 7.8312 22.3383L6.67978 27.9284C6.66783 27.984 6.6675 28.0415 6.67879 28.0973C6.69008 28.1531 6.71276 28.2059 6.74541 28.2525C6.79323 28.3233 6.8615 28.3777 6.9411 28.4086C7.02069 28.4396 7.10783 28.4455 7.19086 28.4255L12.6696 27.127C14.9697 28.2702 17.6009 28.5604 20.095 27.9458C22.589 27.3311 24.7841 25.8516 26.2896 23.7705C27.7952 21.6893 28.5136 19.1415 28.317 16.5804C28.1203 14.0193 27.0215 11.611 25.2159 9.78406ZM23.5076 23.4182C22.2479 24.6744 20.6257 25.5036 18.8697 25.789C17.1136 26.0744 15.3123 25.8016 13.7196 25.0091L12.9559 24.6312L9.59711 25.4267L9.60705 25.3849L10.3031 22.0042L9.92921 21.2664C9.11538 19.6681 8.82829 17.8532 9.10907 16.0818C9.38985 14.3103 10.2241 12.6731 11.4923 11.4048C13.0858 9.81179 15.2467 8.91689 17.5 8.91689C19.7532 8.91689 21.9141 9.81179 23.5076 11.4048C23.5212 11.4204 23.5358 11.435 23.5514 11.4486C25.1251 13.0457 26.0037 15.2002 25.9955 17.4424C25.9873 19.6846 25.093 21.8326 23.5076 23.4182Z" fill="white"/>
<path d="M23.2093 20.9382C22.7977 21.5865 22.1474 22.38 21.3301 22.5769C19.8982 22.9229 17.7008 22.5888 14.9664 20.0394L14.9326 20.0095C12.5283 17.7803 11.9039 15.9249 12.0551 14.4533C12.1386 13.6181 12.8346 12.8624 13.4212 12.3692C13.514 12.29 13.624 12.2337 13.7424 12.2046C13.8608 12.1756 13.9844 12.1746 14.1033 12.2019C14.2221 12.2291 14.3329 12.2838 14.4269 12.3616C14.5208 12.4393 14.5953 12.5379 14.6443 12.6496L15.5292 14.6382C15.5867 14.7672 15.608 14.9093 15.5909 15.0495C15.5737 15.1896 15.5187 15.3224 15.4318 15.4337L14.9843 16.0144C14.8883 16.1343 14.8304 16.2802 14.818 16.4333C14.8056 16.5864 14.8393 16.7397 14.9147 16.8735C15.1653 17.313 15.7658 17.9593 16.432 18.5578C17.1798 19.234 18.009 19.8524 18.534 20.0632C18.6745 20.1206 18.829 20.1346 18.9775 20.1034C19.126 20.0722 19.2617 19.9973 19.3673 19.8882L19.8863 19.3652C19.9865 19.2665 20.111 19.196 20.2472 19.1611C20.3835 19.1262 20.5266 19.128 20.6619 19.1664L22.7639 19.763C22.8798 19.7985 22.9861 19.8601 23.0746 19.9431C23.1631 20.026 23.2314 20.1281 23.2744 20.2415C23.3174 20.3549 23.3339 20.4767 23.3226 20.5974C23.3113 20.7182 23.2726 20.8348 23.2093 20.9382Z" fill="white"/>
</g>
<defs>
<clipPath id="clip0_75_445">
<rect width="35" height="35" fill="white"/>
</clipPath>
</defs>
</svg>
